<mxfile host="app.diagrams.net" modified="2023-05-26T01:36:34.385Z" agent="Mozilla/5.0 (Windows NT 10.0; Win64; x64) AppleWebKit/537.36 (KHTML, like Gecko) Chrome/113.0.0.0 Safari/537.36" etag="1wtHbT2hFh3ARp5Qnu2J" version="21.3.4" type="device">
  <diagram id="C5RBs43oDa-KdzZeNtuy" name="Page-1">
    <mxGraphModel dx="1434" dy="756" grid="1" gridSize="10" guides="1" tooltips="1" connect="1" arrows="1" fold="1" page="1" pageScale="1" pageWidth="827" pageHeight="1169" math="0" shadow="0">
      <root>
        <mxCell id="WIyWlLk6GJQsqaUBKTNV-0" />
        <mxCell id="WIyWlLk6GJQsqaUBKTNV-1" parent="WIyWlLk6GJQsqaUBKTNV-0" />
        <mxCell id="erVWk_g3aRVuFMAjlXkm-0" value="" style="ellipse;whiteSpace=wrap;html=1;aspect=fixed;" vertex="1" parent="WIyWlLk6GJQsqaUBKTNV-1">
          <mxGeometry x="521" y="20" width="40" height="40" as="geometry" />
        </mxCell>
        <mxCell id="erVWk_g3aRVuFMAjlXkm-1" value="Cargar TODO desde el Local Storage" style="rounded=1;whiteSpace=wrap;html=1;" vertex="1" parent="WIyWlLk6GJQsqaUBKTNV-1">
          <mxGeometry x="481" y="240" width="120" height="60" as="geometry" />
        </mxCell>
        <mxCell id="erVWk_g3aRVuFMAjlXkm-2" value="Hay data Local Storage" style="rhombus;whiteSpace=wrap;html=1;" vertex="1" parent="WIyWlLk6GJQsqaUBKTNV-1">
          <mxGeometry x="478" y="110" width="126" height="80" as="geometry" />
        </mxCell>
        <mxCell id="erVWk_g3aRVuFMAjlXkm-3" value="" style="endArrow=classic;html=1;rounded=0;exitX=0.5;exitY=1;exitDx=0;exitDy=0;entryX=0.5;entryY=0;entryDx=0;entryDy=0;" edge="1" parent="WIyWlLk6GJQsqaUBKTNV-1" source="erVWk_g3aRVuFMAjlXkm-0" target="erVWk_g3aRVuFMAjlXkm-2">
          <mxGeometry width="50" height="50" relative="1" as="geometry">
            <mxPoint x="657" y="90" as="sourcePoint" />
            <mxPoint x="707" y="40" as="targetPoint" />
          </mxGeometry>
        </mxCell>
        <mxCell id="erVWk_g3aRVuFMAjlXkm-4" value="SI" style="endArrow=classic;html=1;rounded=0;exitX=0.5;exitY=1;exitDx=0;exitDy=0;entryX=0.5;entryY=0;entryDx=0;entryDy=0;" edge="1" parent="WIyWlLk6GJQsqaUBKTNV-1" source="erVWk_g3aRVuFMAjlXkm-2" target="erVWk_g3aRVuFMAjlXkm-1">
          <mxGeometry width="50" height="50" relative="1" as="geometry">
            <mxPoint x="567" y="220" as="sourcePoint" />
            <mxPoint x="617" y="170" as="targetPoint" />
          </mxGeometry>
        </mxCell>
        <mxCell id="erVWk_g3aRVuFMAjlXkm-5" value="Crear Map y guardarlo en el Local Storage" style="rounded=1;whiteSpace=wrap;html=1;" vertex="1" parent="WIyWlLk6GJQsqaUBKTNV-1">
          <mxGeometry x="307" y="240" width="120" height="60" as="geometry" />
        </mxCell>
        <mxCell id="erVWk_g3aRVuFMAjlXkm-6" value="" style="endArrow=classic;html=1;rounded=0;exitX=0;exitY=0.5;exitDx=0;exitDy=0;entryX=0.5;entryY=0;entryDx=0;entryDy=0;edgeStyle=orthogonalEdgeStyle;" edge="1" parent="WIyWlLk6GJQsqaUBKTNV-1" source="erVWk_g3aRVuFMAjlXkm-2" target="erVWk_g3aRVuFMAjlXkm-5">
          <mxGeometry width="50" height="50" relative="1" as="geometry">
            <mxPoint x="327" y="180" as="sourcePoint" />
            <mxPoint x="377" y="130" as="targetPoint" />
          </mxGeometry>
        </mxCell>
        <mxCell id="erVWk_g3aRVuFMAjlXkm-7" value="NO" style="edgeLabel;html=1;align=center;verticalAlign=middle;resizable=0;points=[];" vertex="1" connectable="0" parent="erVWk_g3aRVuFMAjlXkm-6">
          <mxGeometry x="0.1494" y="-4" relative="1" as="geometry">
            <mxPoint as="offset" />
          </mxGeometry>
        </mxCell>
        <mxCell id="erVWk_g3aRVuFMAjlXkm-8" value="" style="endArrow=classic;html=1;rounded=0;exitX=1;exitY=0.5;exitDx=0;exitDy=0;entryX=0;entryY=0.5;entryDx=0;entryDy=0;" edge="1" parent="WIyWlLk6GJQsqaUBKTNV-1" source="erVWk_g3aRVuFMAjlXkm-5" target="erVWk_g3aRVuFMAjlXkm-1">
          <mxGeometry width="50" height="50" relative="1" as="geometry">
            <mxPoint x="537" y="420" as="sourcePoint" />
            <mxPoint x="587" y="370" as="targetPoint" />
          </mxGeometry>
        </mxCell>
        <mxCell id="erVWk_g3aRVuFMAjlXkm-9" value="Obtener par (clave, valor) y agregarle la tarea nueva" style="rounded=1;whiteSpace=wrap;html=1;" vertex="1" parent="WIyWlLk6GJQsqaUBKTNV-1">
          <mxGeometry x="307" y="570" width="120" height="60" as="geometry" />
        </mxCell>
        <mxCell id="erVWk_g3aRVuFMAjlXkm-10" value="" style="endArrow=classic;html=1;rounded=0;exitX=0.5;exitY=1;exitDx=0;exitDy=0;exitPerimeter=0;entryX=0.5;entryY=0;entryDx=0;entryDy=0;edgeStyle=orthogonalEdgeStyle;" edge="1" parent="WIyWlLk6GJQsqaUBKTNV-1" source="erVWk_g3aRVuFMAjlXkm-12" target="erVWk_g3aRVuFMAjlXkm-13">
          <mxGeometry width="50" height="50" relative="1" as="geometry">
            <mxPoint x="557" y="500" as="sourcePoint" />
            <mxPoint x="647" y="400" as="targetPoint" />
          </mxGeometry>
        </mxCell>
        <mxCell id="erVWk_g3aRVuFMAjlXkm-12" value="" style="verticalLabelPosition=bottom;verticalAlign=top;html=1;shape=mxgraph.flowchart.parallel_mode;pointerEvents=1" vertex="1" parent="WIyWlLk6GJQsqaUBKTNV-1">
          <mxGeometry x="493.5" y="339" width="95" height="40" as="geometry" />
        </mxCell>
        <mxCell id="erVWk_g3aRVuFMAjlXkm-13" value="Agregar nueva tarea" style="shape=process;whiteSpace=wrap;html=1;backgroundOutline=1;" vertex="1" parent="WIyWlLk6GJQsqaUBKTNV-1">
          <mxGeometry x="307" y="440" width="120" height="60" as="geometry" />
        </mxCell>
        <mxCell id="erVWk_g3aRVuFMAjlXkm-14" value="" style="endArrow=classic;html=1;rounded=0;exitX=0.5;exitY=1;exitDx=0;exitDy=0;entryX=0.5;entryY=0;entryDx=0;entryDy=0;" edge="1" parent="WIyWlLk6GJQsqaUBKTNV-1" source="erVWk_g3aRVuFMAjlXkm-13" target="erVWk_g3aRVuFMAjlXkm-9">
          <mxGeometry width="50" height="50" relative="1" as="geometry">
            <mxPoint x="497" y="590" as="sourcePoint" />
            <mxPoint x="547" y="540" as="targetPoint" />
          </mxGeometry>
        </mxCell>
        <mxCell id="erVWk_g3aRVuFMAjlXkm-15" value="" style="endArrow=classic;html=1;rounded=0;exitX=0.5;exitY=1;exitDx=0;exitDy=0;entryX=0.5;entryY=0;entryDx=0;entryDy=0;entryPerimeter=0;" edge="1" parent="WIyWlLk6GJQsqaUBKTNV-1" source="erVWk_g3aRVuFMAjlXkm-1" target="erVWk_g3aRVuFMAjlXkm-12">
          <mxGeometry width="50" height="50" relative="1" as="geometry">
            <mxPoint x="687" y="380" as="sourcePoint" />
            <mxPoint x="737" y="330" as="targetPoint" />
          </mxGeometry>
        </mxCell>
        <mxCell id="erVWk_g3aRVuFMAjlXkm-16" value="Reemplazar el par (clave, valor) en el Map del TODO" style="rounded=1;whiteSpace=wrap;html=1;" vertex="1" parent="WIyWlLk6GJQsqaUBKTNV-1">
          <mxGeometry x="481" y="716" width="120" height="60" as="geometry" />
        </mxCell>
        <mxCell id="erVWk_g3aRVuFMAjlXkm-17" value="Guardar en el Local Storage" style="rounded=1;whiteSpace=wrap;html=1;" vertex="1" parent="WIyWlLk6GJQsqaUBKTNV-1">
          <mxGeometry x="481" y="830" width="120" height="60" as="geometry" />
        </mxCell>
        <mxCell id="erVWk_g3aRVuFMAjlXkm-18" value="" style="endArrow=classic;html=1;rounded=0;exitX=0.5;exitY=1;exitDx=0;exitDy=0;entryX=0.5;entryY=0;entryDx=0;entryDy=0;edgeStyle=orthogonalEdgeStyle;" edge="1" parent="WIyWlLk6GJQsqaUBKTNV-1" source="erVWk_g3aRVuFMAjlXkm-16" target="erVWk_g3aRVuFMAjlXkm-17">
          <mxGeometry width="50" height="50" relative="1" as="geometry">
            <mxPoint x="387" y="840" as="sourcePoint" />
            <mxPoint x="437" y="790" as="targetPoint" />
          </mxGeometry>
        </mxCell>
        <mxCell id="erVWk_g3aRVuFMAjlXkm-19" value="" style="endArrow=classic;html=1;rounded=0;exitX=0.5;exitY=1;exitDx=0;exitDy=0;entryX=0.5;entryY=0;entryDx=0;entryDy=0;edgeStyle=orthogonalEdgeStyle;" edge="1" parent="WIyWlLk6GJQsqaUBKTNV-1" source="erVWk_g3aRVuFMAjlXkm-9" target="erVWk_g3aRVuFMAjlXkm-16">
          <mxGeometry width="50" height="50" relative="1" as="geometry">
            <mxPoint x="547" y="670" as="sourcePoint" />
            <mxPoint x="597" y="620" as="targetPoint" />
          </mxGeometry>
        </mxCell>
        <mxCell id="erVWk_g3aRVuFMAjlXkm-20" value="Eliminar tarea" style="shape=process;whiteSpace=wrap;html=1;backgroundOutline=1;" vertex="1" parent="WIyWlLk6GJQsqaUBKTNV-1">
          <mxGeometry x="481" y="440" width="120" height="60" as="geometry" />
        </mxCell>
        <mxCell id="erVWk_g3aRVuFMAjlXkm-21" value="Obtener par (clave, valor) y eliminar la tarea" style="rounded=1;whiteSpace=wrap;html=1;" vertex="1" parent="WIyWlLk6GJQsqaUBKTNV-1">
          <mxGeometry x="481" y="570" width="120" height="60" as="geometry" />
        </mxCell>
        <mxCell id="erVWk_g3aRVuFMAjlXkm-22" value="" style="endArrow=classic;html=1;rounded=0;exitX=0.5;exitY=1;exitDx=0;exitDy=0;exitPerimeter=0;entryX=0.5;entryY=0;entryDx=0;entryDy=0;" edge="1" parent="WIyWlLk6GJQsqaUBKTNV-1" source="erVWk_g3aRVuFMAjlXkm-12" target="erVWk_g3aRVuFMAjlXkm-20">
          <mxGeometry width="50" height="50" relative="1" as="geometry">
            <mxPoint x="657" y="580" as="sourcePoint" />
            <mxPoint x="707" y="530" as="targetPoint" />
          </mxGeometry>
        </mxCell>
        <mxCell id="erVWk_g3aRVuFMAjlXkm-23" value="" style="endArrow=classic;html=1;rounded=0;exitX=0.5;exitY=1;exitDx=0;exitDy=0;entryX=0.5;entryY=0;entryDx=0;entryDy=0;" edge="1" parent="WIyWlLk6GJQsqaUBKTNV-1" source="erVWk_g3aRVuFMAjlXkm-20" target="erVWk_g3aRVuFMAjlXkm-21">
          <mxGeometry width="50" height="50" relative="1" as="geometry">
            <mxPoint x="727" y="520" as="sourcePoint" />
            <mxPoint x="777" y="470" as="targetPoint" />
          </mxGeometry>
        </mxCell>
        <mxCell id="erVWk_g3aRVuFMAjlXkm-24" value="" style="endArrow=classic;html=1;rounded=0;exitX=0.5;exitY=1;exitDx=0;exitDy=0;entryX=0.5;entryY=0;entryDx=0;entryDy=0;" edge="1" parent="WIyWlLk6GJQsqaUBKTNV-1" source="erVWk_g3aRVuFMAjlXkm-21" target="erVWk_g3aRVuFMAjlXkm-16">
          <mxGeometry width="50" height="50" relative="1" as="geometry">
            <mxPoint x="797" y="670" as="sourcePoint" />
            <mxPoint x="847" y="620" as="targetPoint" />
          </mxGeometry>
        </mxCell>
        <mxCell id="erVWk_g3aRVuFMAjlXkm-25" value="Limpiar tareas completas" style="shape=process;whiteSpace=wrap;html=1;backgroundOutline=1;" vertex="1" parent="WIyWlLk6GJQsqaUBKTNV-1">
          <mxGeometry x="123" y="440" width="120" height="60" as="geometry" />
        </mxCell>
        <mxCell id="erVWk_g3aRVuFMAjlXkm-26" value="" style="endArrow=classic;html=1;rounded=0;exitX=0.5;exitY=1;exitDx=0;exitDy=0;exitPerimeter=0;entryX=0.5;entryY=0;entryDx=0;entryDy=0;edgeStyle=orthogonalEdgeStyle;" edge="1" parent="WIyWlLk6GJQsqaUBKTNV-1" source="erVWk_g3aRVuFMAjlXkm-12" target="erVWk_g3aRVuFMAjlXkm-25">
          <mxGeometry width="50" height="50" relative="1" as="geometry">
            <mxPoint x="667" y="420" as="sourcePoint" />
            <mxPoint x="717" y="370" as="targetPoint" />
          </mxGeometry>
        </mxCell>
        <mxCell id="erVWk_g3aRVuFMAjlXkm-28" value="Obtener próximo par (clave, valor) y quitar las tareas completas" style="rounded=1;whiteSpace=wrap;html=1;" vertex="1" parent="WIyWlLk6GJQsqaUBKTNV-1">
          <mxGeometry x="108" y="570" width="150" height="60" as="geometry" />
        </mxCell>
        <mxCell id="erVWk_g3aRVuFMAjlXkm-29" value="" style="endArrow=classic;html=1;rounded=0;exitX=0.5;exitY=1;exitDx=0;exitDy=0;entryX=0.5;entryY=0;entryDx=0;entryDy=0;" edge="1" parent="WIyWlLk6GJQsqaUBKTNV-1" source="erVWk_g3aRVuFMAjlXkm-25" target="erVWk_g3aRVuFMAjlXkm-28">
          <mxGeometry width="50" height="50" relative="1" as="geometry">
            <mxPoint x="223" y="720" as="sourcePoint" />
            <mxPoint x="273" y="670" as="targetPoint" />
          </mxGeometry>
        </mxCell>
        <mxCell id="erVWk_g3aRVuFMAjlXkm-30" value="Hay otro par" style="rhombus;whiteSpace=wrap;html=1;" vertex="1" parent="WIyWlLk6GJQsqaUBKTNV-1">
          <mxGeometry x="138" y="830" width="90" height="60" as="geometry" />
        </mxCell>
        <mxCell id="erVWk_g3aRVuFMAjlXkm-31" value="Reemplazar el par (clave, valor) en el Map del TODO" style="rounded=1;whiteSpace=wrap;html=1;" vertex="1" parent="WIyWlLk6GJQsqaUBKTNV-1">
          <mxGeometry x="123" y="700" width="120" height="60" as="geometry" />
        </mxCell>
        <mxCell id="erVWk_g3aRVuFMAjlXkm-32" value="" style="endArrow=classic;html=1;rounded=0;exitX=0.5;exitY=1;exitDx=0;exitDy=0;entryX=0.5;entryY=0;entryDx=0;entryDy=0;" edge="1" parent="WIyWlLk6GJQsqaUBKTNV-1" source="erVWk_g3aRVuFMAjlXkm-28" target="erVWk_g3aRVuFMAjlXkm-31">
          <mxGeometry width="50" height="50" relative="1" as="geometry">
            <mxPoint x="313" y="680" as="sourcePoint" />
            <mxPoint x="363" y="630" as="targetPoint" />
          </mxGeometry>
        </mxCell>
        <mxCell id="erVWk_g3aRVuFMAjlXkm-33" value="" style="endArrow=classic;html=1;rounded=0;exitX=0.5;exitY=1;exitDx=0;exitDy=0;entryX=0.5;entryY=0;entryDx=0;entryDy=0;" edge="1" parent="WIyWlLk6GJQsqaUBKTNV-1" source="erVWk_g3aRVuFMAjlXkm-31" target="erVWk_g3aRVuFMAjlXkm-30">
          <mxGeometry width="50" height="50" relative="1" as="geometry">
            <mxPoint x="273" y="780" as="sourcePoint" />
            <mxPoint x="323" y="730" as="targetPoint" />
          </mxGeometry>
        </mxCell>
        <mxCell id="erVWk_g3aRVuFMAjlXkm-34" value="" style="endArrow=classic;html=1;rounded=0;entryX=0;entryY=0.5;entryDx=0;entryDy=0;edgeStyle=orthogonalEdgeStyle;exitX=0;exitY=0.5;exitDx=0;exitDy=0;" edge="1" parent="WIyWlLk6GJQsqaUBKTNV-1" source="erVWk_g3aRVuFMAjlXkm-30" target="erVWk_g3aRVuFMAjlXkm-28">
          <mxGeometry width="50" height="50" relative="1" as="geometry">
            <mxPoint x="98" y="800" as="sourcePoint" />
            <mxPoint x="293" y="770" as="targetPoint" />
            <Array as="points">
              <mxPoint x="48" y="860" />
              <mxPoint x="48" y="600" />
            </Array>
          </mxGeometry>
        </mxCell>
        <mxCell id="erVWk_g3aRVuFMAjlXkm-38" value="SI" style="edgeLabel;html=1;align=center;verticalAlign=middle;resizable=0;points=[];" vertex="1" connectable="0" parent="erVWk_g3aRVuFMAjlXkm-34">
          <mxGeometry x="0.01" y="-1" relative="1" as="geometry">
            <mxPoint x="-2" y="-18" as="offset" />
          </mxGeometry>
        </mxCell>
        <mxCell id="erVWk_g3aRVuFMAjlXkm-35" value="" style="endArrow=classic;html=1;rounded=0;exitX=1;exitY=0.5;exitDx=0;exitDy=0;entryX=0;entryY=0.5;entryDx=0;entryDy=0;" edge="1" parent="WIyWlLk6GJQsqaUBKTNV-1" source="erVWk_g3aRVuFMAjlXkm-30" target="erVWk_g3aRVuFMAjlXkm-17">
          <mxGeometry width="50" height="50" relative="1" as="geometry">
            <mxPoint x="227" y="940" as="sourcePoint" />
            <mxPoint x="427" y="800" as="targetPoint" />
          </mxGeometry>
        </mxCell>
        <mxCell id="erVWk_g3aRVuFMAjlXkm-39" value="NO" style="edgeLabel;html=1;align=center;verticalAlign=middle;resizable=0;points=[];" vertex="1" connectable="0" parent="erVWk_g3aRVuFMAjlXkm-35">
          <mxGeometry x="0.2958" y="2" relative="1" as="geometry">
            <mxPoint x="-44" y="1" as="offset" />
          </mxGeometry>
        </mxCell>
        <mxCell id="erVWk_g3aRVuFMAjlXkm-40" value="Mover tarea" style="shape=process;whiteSpace=wrap;html=1;backgroundOutline=1;" vertex="1" parent="WIyWlLk6GJQsqaUBKTNV-1">
          <mxGeometry x="657" y="440" width="120" height="60" as="geometry" />
        </mxCell>
        <mxCell id="erVWk_g3aRVuFMAjlXkm-41" value="" style="ellipse;whiteSpace=wrap;html=1;aspect=fixed;" vertex="1" parent="WIyWlLk6GJQsqaUBKTNV-1">
          <mxGeometry x="521" y="970" width="40" height="40" as="geometry" />
        </mxCell>
        <mxCell id="erVWk_g3aRVuFMAjlXkm-42" value="" style="endArrow=classic;html=1;rounded=0;exitX=0.5;exitY=1;exitDx=0;exitDy=0;entryX=0.5;entryY=0;entryDx=0;entryDy=0;" edge="1" parent="WIyWlLk6GJQsqaUBKTNV-1" source="erVWk_g3aRVuFMAjlXkm-17" target="erVWk_g3aRVuFMAjlXkm-41">
          <mxGeometry width="50" height="50" relative="1" as="geometry">
            <mxPoint x="597" y="960" as="sourcePoint" />
            <mxPoint x="647" y="910" as="targetPoint" />
          </mxGeometry>
        </mxCell>
        <mxCell id="erVWk_g3aRVuFMAjlXkm-43" value="" style="endArrow=classic;html=1;rounded=0;exitX=0.5;exitY=1;exitDx=0;exitDy=0;exitPerimeter=0;entryX=0.5;entryY=0;entryDx=0;entryDy=0;edgeStyle=orthogonalEdgeStyle;" edge="1" parent="WIyWlLk6GJQsqaUBKTNV-1" source="erVWk_g3aRVuFMAjlXkm-12" target="erVWk_g3aRVuFMAjlXkm-40">
          <mxGeometry width="50" height="50" relative="1" as="geometry">
            <mxPoint x="757" y="370" as="sourcePoint" />
            <mxPoint x="807" y="320" as="targetPoint" />
          </mxGeometry>
        </mxCell>
        <mxCell id="erVWk_g3aRVuFMAjlXkm-44" value="Editar tarea" style="shape=process;whiteSpace=wrap;html=1;backgroundOutline=1;" vertex="1" parent="WIyWlLk6GJQsqaUBKTNV-1">
          <mxGeometry x="834" y="440" width="120" height="60" as="geometry" />
        </mxCell>
        <mxCell id="erVWk_g3aRVuFMAjlXkm-45" value="" style="endArrow=classic;html=1;rounded=0;exitX=0.5;exitY=1;exitDx=0;exitDy=0;exitPerimeter=0;entryX=0.5;entryY=0;entryDx=0;entryDy=0;edgeStyle=orthogonalEdgeStyle;" edge="1" parent="WIyWlLk6GJQsqaUBKTNV-1" source="erVWk_g3aRVuFMAjlXkm-12" target="erVWk_g3aRVuFMAjlXkm-44">
          <mxGeometry width="50" height="50" relative="1" as="geometry">
            <mxPoint x="740" y="660" as="sourcePoint" />
            <mxPoint x="790" y="610" as="targetPoint" />
          </mxGeometry>
        </mxCell>
      </root>
    </mxGraphModel>
  </diagram>
</mxfile>
